<mxfile host="app.diagrams.net" modified="2023-12-19T16:15:02.624Z" agent="Mozilla/5.0 (Windows NT 10.0; Win64; x64) AppleWebKit/537.36 (KHTML, like Gecko) Chrome/120.0.0.0 Safari/537.36 Edg/120.0.0.0" etag="SNHzvJkbmQGidJV7AMe1" version="22.1.11" type="github">
  <diagram name="Page-1" id="97Vsrzicg0D4EQ791xuZ">
    <mxGraphModel dx="872" dy="439" grid="1" gridSize="10" guides="1" tooltips="1" connect="1" arrows="1" fold="1" page="1" pageScale="1" pageWidth="850" pageHeight="1100" math="0" shadow="0">
      <root>
        <mxCell id="0" />
        <mxCell id="1" parent="0" />
        <mxCell id="Wvw9zC45UooLsQ2qZijX-1" value="" style="shape=image;html=1;verticalAlign=top;verticalLabelPosition=bottom;labelBackgroundColor=#ffffff;imageAspect=0;aspect=fixed;image=https://cdn1.iconfinder.com/data/icons/CrystalClear/128x128/filesystems/pipe.png" parent="1" vertex="1">
          <mxGeometry x="70" y="110" width="70" height="70" as="geometry" />
        </mxCell>
        <mxCell id="Wvw9zC45UooLsQ2qZijX-2" value="" style="shape=partialRectangle;whiteSpace=wrap;html=1;left=0;right=0;fillColor=none;" parent="1" vertex="1">
          <mxGeometry x="130" y="160" width="690" height="30" as="geometry" />
        </mxCell>
        <mxCell id="Wvw9zC45UooLsQ2qZijX-3" value="" style="ellipse;shape=doubleEllipse;whiteSpace=wrap;html=1;" parent="1" vertex="1">
          <mxGeometry x="300" y="140" width="100" height="60" as="geometry" />
        </mxCell>
        <mxCell id="Wvw9zC45UooLsQ2qZijX-4" value="Water Flow Sensor" style="text;html=1;strokeColor=none;fillColor=none;align=center;verticalAlign=middle;whiteSpace=wrap;rounded=0;" parent="1" vertex="1">
          <mxGeometry x="310" y="110" width="90" height="30" as="geometry" />
        </mxCell>
        <mxCell id="Wvw9zC45UooLsQ2qZijX-5" value="" style="shape=mxgraph.pid.vessels.container,_tank,_cistern_(bottom);html=1;pointerEvents=1;align=center;verticalLabelPosition=bottom;verticalAlign=top;dashed=0;" parent="1" vertex="1">
          <mxGeometry x="780" y="190" width="210" height="320" as="geometry" />
        </mxCell>
        <mxCell id="Wvw9zC45UooLsQ2qZijX-6" value="" style="shape=dataStorage;whiteSpace=wrap;html=1;fixedSize=1;" parent="1" vertex="1">
          <mxGeometry x="640" y="150" width="90" height="50" as="geometry" />
        </mxCell>
        <mxCell id="Wvw9zC45UooLsQ2qZijX-7" value="AutoSwitch" style="text;html=1;strokeColor=none;fillColor=none;align=center;verticalAlign=middle;whiteSpace=wrap;rounded=0;" parent="1" vertex="1">
          <mxGeometry x="655" y="120" width="60" height="30" as="geometry" />
        </mxCell>
        <mxCell id="Wvw9zC45UooLsQ2qZijX-8" value="" style="triangle;whiteSpace=wrap;html=1;" parent="1" vertex="1">
          <mxGeometry x="780" y="210" width="30" height="50" as="geometry" />
        </mxCell>
        <mxCell id="Wvw9zC45UooLsQ2qZijX-9" value="Water Level Sensor" style="text;html=1;strokeColor=none;fillColor=none;align=center;verticalAlign=middle;whiteSpace=wrap;rounded=0;" parent="1" vertex="1">
          <mxGeometry x="705" y="220" width="75" height="30" as="geometry" />
        </mxCell>
        <mxCell id="Wvw9zC45UooLsQ2qZijX-10" value="" style="endArrow=none;dashed=1;html=1;dashPattern=1 3;strokeWidth=2;rounded=0;" parent="1" edge="1">
          <mxGeometry width="50" height="50" relative="1" as="geometry">
            <mxPoint x="809.5287958115184" y="233.3926701570681" as="sourcePoint" />
            <mxPoint x="990" y="238" as="targetPoint" />
            <Array as="points">
              <mxPoint x="980" y="238" />
            </Array>
          </mxGeometry>
        </mxCell>
        <mxCell id="Wvw9zC45UooLsQ2qZijX-11" value="Water Pipe" style="text;html=1;strokeColor=none;fillColor=none;align=center;verticalAlign=middle;whiteSpace=wrap;rounded=0;" parent="1" vertex="1">
          <mxGeometry x="490" y="120" width="60" height="30" as="geometry" />
        </mxCell>
        <mxCell id="Wvw9zC45UooLsQ2qZijX-12" value="Water Tank" style="text;html=1;strokeColor=none;fillColor=none;align=center;verticalAlign=middle;whiteSpace=wrap;rounded=0;" parent="1" vertex="1">
          <mxGeometry x="850" y="440" width="70" height="30" as="geometry" />
        </mxCell>
        <mxCell id="Wvw9zC45UooLsQ2qZijX-14" value="" style="shape=image;html=1;verticalAlign=top;verticalLabelPosition=bottom;labelBackgroundColor=#ffffff;imageAspect=0;aspect=fixed;image=https://cdn2.iconfinder.com/data/icons/electronic-13/480/3-electronic-arduino-chipset-icon-2-128.png" parent="1" vertex="1">
          <mxGeometry x="480" y="312" width="128" height="128" as="geometry" />
        </mxCell>
        <mxCell id="Wvw9zC45UooLsQ2qZijX-15" value="Arduino / raspberry PI" style="text;html=1;strokeColor=none;fillColor=none;align=center;verticalAlign=middle;whiteSpace=wrap;rounded=0;" parent="1" vertex="1">
          <mxGeometry x="514" y="440" width="86" height="30" as="geometry" />
        </mxCell>
        <mxCell id="Wvw9zC45UooLsQ2qZijX-16" value="" style="endArrow=classic;html=1;rounded=0;entryX=0.5;entryY=1;entryDx=0;entryDy=0;exitX=-0.023;exitY=0.313;exitDx=0;exitDy=0;exitPerimeter=0;" parent="1" source="Wvw9zC45UooLsQ2qZijX-14" target="Wvw9zC45UooLsQ2qZijX-3" edge="1">
          <mxGeometry width="50" height="50" relative="1" as="geometry">
            <mxPoint x="270" y="290" as="sourcePoint" />
            <mxPoint x="320" y="240" as="targetPoint" />
            <Array as="points">
              <mxPoint x="350" y="350" />
            </Array>
          </mxGeometry>
        </mxCell>
        <mxCell id="Wvw9zC45UooLsQ2qZijX-17" value="" style="endArrow=classic;html=1;rounded=0;" parent="1" edge="1">
          <mxGeometry width="50" height="50" relative="1" as="geometry">
            <mxPoint x="610" y="340" as="sourcePoint" />
            <mxPoint x="680" y="200" as="targetPoint" />
            <Array as="points">
              <mxPoint x="680" y="340" />
            </Array>
          </mxGeometry>
        </mxCell>
        <mxCell id="Wvw9zC45UooLsQ2qZijX-18" value="" style="endArrow=classic;html=1;rounded=0;entryX=-0.014;entryY=0.2;entryDx=0;entryDy=0;entryPerimeter=0;exitX=1;exitY=0.398;exitDx=0;exitDy=0;exitPerimeter=0;" parent="1" source="Wvw9zC45UooLsQ2qZijX-14" target="Wvw9zC45UooLsQ2qZijX-5" edge="1">
          <mxGeometry width="50" height="50" relative="1" as="geometry">
            <mxPoint x="630" y="360" as="sourcePoint" />
            <mxPoint x="630" y="310" as="targetPoint" />
            <Array as="points">
              <mxPoint x="730" y="360" />
              <mxPoint x="730" y="270" />
            </Array>
          </mxGeometry>
        </mxCell>
        <mxCell id="hqJqOE1jIvy0kedfdV8O-1" value="" style="outlineConnect=0;dashed=0;verticalLabelPosition=bottom;verticalAlign=top;align=center;html=1;shape=mxgraph.aws3.mobile_client;fillColor=#D2D3D3;gradientColor=none;" vertex="1" parent="1">
          <mxGeometry x="200" y="447" width="40.5" height="63" as="geometry" />
        </mxCell>
        <mxCell id="hqJqOE1jIvy0kedfdV8O-2" value="" style="endArrow=classic;html=1;rounded=0;" edge="1" parent="1" target="hqJqOE1jIvy0kedfdV8O-1">
          <mxGeometry width="50" height="50" relative="1" as="geometry">
            <mxPoint x="470" y="400" as="sourcePoint" />
            <mxPoint x="290" y="400" as="targetPoint" />
            <Array as="points">
              <mxPoint x="300" y="400" />
              <mxPoint x="300" y="480" />
            </Array>
          </mxGeometry>
        </mxCell>
        <mxCell id="hqJqOE1jIvy0kedfdV8O-3" value="Send SMS to mobile saying Water tank reched limit or water started filling tank" style="text;html=1;strokeColor=none;fillColor=none;align=center;verticalAlign=middle;whiteSpace=wrap;rounded=0;" vertex="1" parent="1">
          <mxGeometry x="300" y="430" width="160" height="90" as="geometry" />
        </mxCell>
      </root>
    </mxGraphModel>
  </diagram>
</mxfile>
